<svg width="92" height="78" viewBox="0 0 92 78" fill="none" xmlns="http://www.w3.org/2000/svg">
<g clip-path="url(#clip0_213_306)">
<path d="M18.7329 39.402C18.7329 47.3958 25.3526 53.8762 33.5186 53.8762H55.6972C57.9655 53.8762 59.8043 52.0761 59.8043 49.8556V22.5154C59.8043 18.0743 56.1266 14.4741 51.5901 14.4741H22.8401C20.5717 14.4741 18.7329 16.2742 18.7329 18.4947V39.402Z" fill="#FFF1DA"/>
<path d="M58.6412 50.6127C57.5254 50.8574 56.4387 51.3105 55.4484 51.9437C52.8685 53.5529 51.3675 55.8502 52.096 57.0741C52.8246 58.2981 55.5067 57.985 58.0865 56.3757C59.0902 55.7649 59.9817 54.9844 60.7064 54.0821C61.0426 53.6462 61.103 53.103 60.8605 52.697L59.914 51.107C59.6732 50.6997 59.1738 50.506 58.6412 50.6127Z" fill="#D5D6DB"/>
<path d="M52.1626 28.9067C51.3535 29.0842 50.5655 29.4129 49.8473 29.8721C47.977 31.0387 46.888 32.7044 47.4158 33.5912C47.9437 34.4779 49.8892 34.2508 51.7593 33.0842C52.487 32.6411 53.1334 32.0748 53.6589 31.4205C53.9025 31.1046 53.9461 30.7111 53.7703 30.4167L53.0851 29.2654C52.9107 28.9701 52.5488 28.8294 52.1626 28.9067Z" fill="#D5D6DB"/>
<path d="M41.6366 29.8159C41.4566 29.7962 41.2645 29.8433 41.0979 29.9474L36.7048 32.688C36.3374 32.9165 36.1903 33.3566 36.3767 33.6712C36.4193 33.7433 36.4777 33.8048 36.5485 33.8523L47.3763 41.1577L62.0254 32.0191L41.6366 29.8159Z" fill="#029BC5"/>
<path d="M87.9462 28.7829L48.0806 53.3506L24.4951 62.5384L12.4668 64.8784L11.1436 62.6775L77.5929 22.5144C79.5734 21.3123 81.7798 20.5744 83.9878 20.3757C84.9554 20.2938 85.9107 20.3253 86.8315 20.4691C87.648 20.5903 88.4227 20.824 89.1324 21.1635C89.9234 21.548 91.4307 21.5924 91.9187 22.3585C91.9203 22.3573 93.0719 25.8749 87.9462 28.7829Z" fill="#E1E6E9"/>
<path d="M48.609 50.0998L31.3629 77.0141C31.1475 77.392 31.2754 77.815 31.6483 77.959C31.877 78.0474 32.1571 78.0128 32.3923 77.8665L36.782 75.1405C37.6264 74.6154 38.374 73.9496 38.9787 73.1825L72.4246 34.6902L48.609 50.0998Z" fill="#029BC5"/>
<path d="M5.08977 49.2012C4.80211 49.1049 4.45974 49.1549 4.17076 49.335L0.5421 51.5973C0.0475996 51.9054 -0.149379 52.4975 0.101896 52.9203C0.149703 53.0006 0.211886 53.0714 0.286472 53.1296L10.453 61.1004L21.1423 54.5644L5.08977 49.2012Z" fill="#029BC5"/>
<path d="M13.861 62.5375L8.38905 70.0392C8.30888 70.1469 8.32769 70.2828 8.43119 70.3415C8.50578 70.3841 8.60763 70.3761 8.69043 70.3222L12.0815 68.2186C12.1078 68.2017 12.1317 68.1816 12.1514 68.1583L20.1468 58.6416L13.861 62.5375Z" fill="#029BC5"/>
<path d="M86.1768 20.7922C85.2289 20.6432 84.2448 20.6113 83.2484 20.697C82.2783 22.0247 81.659 23.5161 81.4503 25.0226C81.4355 25.3252 81.6844 25.543 82.0073 25.5091C82.1075 25.4985 82.2077 25.464 82.2972 25.4086L88.5467 21.5132C87.8156 21.1605 87.018 20.9179 86.1768 20.7922Z" fill="#029BC5"/>
<path d="M72.5586 27.9556L76.6386 25.4331L80.4394 31.7608L76.3593 34.2833L72.5586 27.9556Z" fill="#D5D6DB"/>
<path d="M69.9914 30.4582C69.4994 30.763 69.303 31.3491 69.5527 31.767L69.9569 32.444C70.223 32.8513 70.8301 32.9229 71.3131 32.6039C71.7731 32.3001 71.9587 31.748 71.7369 31.3402L71.3328 30.6632C71.0831 30.2456 70.4826 30.1537 69.9914 30.4582Z" fill="#3A556A"/>
<path d="M66.3238 32.6876C65.8325 32.9924 65.6354 33.5785 65.8851 33.9964L66.2901 34.6734C66.5554 35.0807 67.1633 35.1523 67.6463 34.8333C68.1063 34.5295 68.2911 33.9774 68.0693 33.5696L67.6651 32.8925C67.4154 32.4751 66.815 32.3833 66.3238 32.6876Z" fill="#3A556A"/>
<path d="M62.6555 34.9177C62.1642 35.223 61.9688 35.8084 62.2185 36.2259L62.6226 36.9029C62.8887 37.3102 63.4958 37.3818 63.9788 37.0628C64.4388 36.759 64.6244 36.2069 64.4026 35.7992L63.9985 35.1221C63.7488 34.7042 63.1475 34.6127 62.6555 34.9177Z" fill="#3A556A"/>
<path d="M58.9883 37.1472C58.4971 37.4524 58.3013 38.0378 58.5507 38.4553L58.9551 39.1324C59.2211 39.5397 59.8284 39.6112 60.3116 39.2922C60.7714 38.9884 60.9567 38.4363 60.735 38.0286L60.3307 37.3516C60.0809 36.9337 59.4799 36.8422 58.9883 37.1472Z" fill="#3A556A"/>
<path d="M55.3216 39.3768C54.8302 39.6822 54.6342 40.2678 54.8838 40.6856L55.2884 41.3629C55.5379 41.7805 56.1385 41.8719 56.6301 41.5671C57.1216 41.2624 57.3179 40.6768 57.0684 40.2593L56.6637 39.5819C56.4149 39.164 55.8145 39.0719 55.3226 39.3761L55.3216 39.3768Z" fill="#3A556A"/>
<path d="M51.6545 41.606C51.1632 41.9114 50.9673 42.497 51.2168 42.9147L51.6214 43.5921C51.8708 44.0096 52.4715 44.1011 52.9631 43.7964C53.4545 43.4916 53.6508 42.9061 53.4014 42.4885L52.9968 41.8112C52.7479 41.3932 52.1475 41.3012 51.6556 41.6054L51.6545 41.606Z" fill="#3A556A"/>
<path d="M47.9871 43.8357C47.4957 44.1411 47.2998 44.7266 47.5493 45.1444L47.954 45.8217C48.204 46.2389 48.805 46.3293 49.2959 46.0242C49.7861 45.7196 49.9819 45.1353 49.7337 44.7182L49.329 44.0409C49.0796 43.6231 48.479 43.5311 47.9871 43.8357Z" fill="#3A556A"/>
<path d="M44.3196 46.0649C43.8282 46.3703 43.6323 46.956 43.8818 47.3737L44.2865 48.051C44.5365 48.4682 45.1375 48.5587 45.6284 48.2536C46.1186 47.9489 46.3144 47.3646 46.0662 46.9475L45.6616 46.2702C45.4122 45.8523 44.8115 45.7604 44.3196 46.0649Z" fill="#3A556A"/>
<path d="M40.6526 48.2943C40.1612 48.5997 39.9653 49.1853 40.2148 49.603L40.6195 50.2803C40.8695 50.6975 41.4705 50.788 41.9615 50.4829C42.4516 50.1782 42.6474 49.5939 42.3992 49.1769L41.9946 48.4996C41.745 48.0818 41.1443 47.9899 40.6526 48.2943Z" fill="#3A556A"/>
<path d="M36.9841 50.5244C36.4925 50.8291 36.2963 51.4147 36.5458 51.8322L36.5464 51.8331L36.9509 52.5105C37.201 52.9276 37.802 53.0181 38.293 52.713C38.7831 52.4084 38.9789 51.824 38.7306 51.407L38.3261 50.7296C38.0767 50.3118 37.476 50.2199 36.9841 50.5244Z" fill="#3A556A"/>
<path d="M33.318 52.753C32.8266 53.0578 32.6303 53.6433 32.8797 54.0608L32.8803 54.0617L33.2849 54.739C33.535 55.1562 34.1359 55.2468 34.6269 54.9416C35.1171 54.637 35.3129 54.0526 35.0646 53.6356L34.66 52.9583C34.4104 52.5406 33.8098 52.4487 33.318 52.753Z" fill="#3A556A"/>
</g>
<defs>
<clipPath id="clip0_213_306">
<rect width="92" height="78" fill="white"/>
</clipPath>
</defs>
</svg>
