<svg width="22" height="22" viewBox="0 0 22 22" fill="none" xmlns="http://www.w3.org/2000/svg">
<path d="M21.3109 6.45309L21.3108 6.45309L21.3111 6.45778C21.4126 8.24554 21.4126 13.6368 21.3111 15.4245L21.3109 15.4278C21.2262 17.1184 20.8454 18.5281 19.6892 19.6843L19.6885 19.685C18.5325 20.8453 17.1235 21.226 15.4341 21.306L15.4294 21.3062C13.6417 21.4077 8.24554 21.4077 6.45778 21.3062L6.45448 21.306C4.76465 21.2213 3.35895 20.8408 2.19736 19.6836C1.03698 18.5276 0.656343 17.1186 0.576345 15.4292L0.576367 15.4292L0.576101 15.4245C0.474633 13.6368 0.474633 8.24066 0.576101 6.45289L0.576112 6.45289L0.576277 6.4496C0.661095 4.75796 1.03744 3.34933 2.19736 2.19383C3.35874 1.03687 4.76897 0.656317 6.45316 0.576342L6.45316 0.576363L6.45778 0.576101C8.24554 0.474633 13.6417 0.474633 15.4294 0.576101L15.4294 0.576112L15.4327 0.576277C17.1233 0.66104 18.533 1.04184 19.6892 2.19804L19.6898 2.19871C20.8502 3.35468 21.2309 4.76373 21.3109 6.45309ZM17.5806 19.9362L17.5823 19.9355C18.6705 19.4991 19.509 18.6614 19.9409 17.5762C20.2636 16.7652 20.3719 15.4648 20.41 14.2404C20.4379 13.3464 20.4287 12.4343 20.4213 11.7035C20.4184 11.4177 20.4158 11.1596 20.4158 10.9412C20.4158 10.7227 20.4184 10.4647 20.4213 10.1789C20.4287 9.44856 20.4379 8.53722 20.41 7.64372C20.3719 6.41969 20.2636 5.11974 19.9411 4.30663L19.9404 4.30487C19.504 3.21669 18.6663 2.37819 17.5811 1.94632L17.5798 1.94578C16.7696 1.62611 15.47 1.51777 14.2456 1.47901C13.3448 1.4505 12.4263 1.4593 11.6929 1.46633C11.4133 1.46901 11.1606 1.47144 10.946 1.47144C10.7276 1.47144 10.4696 1.46882 10.1838 1.46593C9.45345 1.45854 8.5421 1.44932 7.64861 1.47717C6.42457 1.51533 5.12462 1.62362 4.31151 1.94611L4.31151 1.94611L4.30975 1.94681C3.22157 2.38319 2.38307 3.22089 1.95121 4.30609L1.95067 4.30746C1.631 5.11765 1.52265 6.41717 1.48389 7.64165C1.45538 8.54239 1.46419 9.46086 1.47122 10.1943C1.4739 10.4739 1.47632 10.7266 1.47632 10.9412C1.47632 11.1596 1.47371 11.4177 1.47082 11.7034C1.46342 12.4338 1.4542 13.3451 1.48205 14.2386C1.52021 15.4626 1.62851 16.7626 1.95099 17.5757L1.9517 17.5775C2.38807 18.6656 3.22577 19.5041 4.31097 19.936L4.31234 19.9365C5.12253 20.2562 6.42205 20.3646 7.64654 20.4033C8.54727 20.4318 9.46574 20.423 10.1992 20.416C10.4788 20.4133 10.7315 20.4109 10.946 20.4109C11.1645 20.4109 11.4225 20.4135 11.7083 20.4164C12.4386 20.4238 13.35 20.433 14.2435 20.4052C15.4675 20.367 16.7675 20.2587 17.5806 19.9362ZM5.83569 10.9412C5.83569 8.11184 8.11672 5.83081 10.946 5.83081C13.7754 5.83081 16.0564 8.11184 16.0564 10.9412C16.0564 13.7705 13.7754 16.0515 10.946 16.0515C8.11672 16.0515 5.83569 13.7705 5.83569 10.9412ZM6.79858 10.9412C6.79858 13.2295 8.6635 15.0886 10.946 15.0886C13.2286 15.0886 15.0935 13.2295 15.0935 10.9412C15.0935 8.6533 13.2339 6.7937 10.946 6.7937C8.65818 6.7937 6.79858 8.6533 6.79858 10.9412ZM17.5945 5.10132C17.5945 5.5515 17.2336 5.90991 16.7859 5.90991C16.3357 5.90991 15.9773 5.54905 15.9773 5.10132C15.9773 4.65481 16.3394 4.29272 16.7859 4.29272C17.2324 4.29272 17.5945 4.6548 17.5945 5.10132Z" fill="black" stroke="black"/>
</svg>
