<svg width="14" height="14" viewBox="0 0 14 14" fill="none" xmlns="http://www.w3.org/2000/svg">
<path d="M12.3433 1.24251L6.02581 7.58335C5.95339 7.54139 5.87723 7.50624 5.79831 7.47835L1.62748 6.06668C1.50135 6.03507 1.38939 5.96222 1.3094 5.8597C1.22941 5.75719 1.18596 5.63088 1.18596 5.50085C1.18596 5.37081 1.22941 5.24451 1.3094 5.14199C1.38939 5.03947 1.50135 4.96662 1.62748 4.93501L11.9758 1.25418C12.0435 1.23121 12.1144 1.21939 12.1858 1.21918C12.2392 1.21832 12.2924 1.2262 12.3433 1.24251Z" fill="#84829A"/>
<path d="M12.7459 2.02418L9.06502 12.3842C9.02443 12.5049 8.94544 12.6091 8.8401 12.6807C8.73477 12.7523 8.60889 12.7875 8.48168 12.7808C8.35301 12.7867 8.22601 12.7499 8.12048 12.676C8.01496 12.6021 7.93686 12.4954 7.89835 12.3725L6.51001 8.20168C6.48212 8.12276 6.44697 8.0466 6.40501 7.97418L12.7575 1.65668C12.7933 1.77723 12.7893 1.90614 12.7459 2.02418Z" fill="#84829A"/>
</svg>
